<svg width="546" height="82" viewBox="0 0 546 82" fill="none" xmlns="http://www.w3.org/2000/svg">
<path d="M251.875 81.625H8.125C3.65625 81.625 0 77.9688 0 73.5V8.5C0 4.03125 3.65625 0.375 8.125 0.375H251.875C256.344 0.375 260 4.03125 260 8.5V73.5C260 77.9688 256.344 81.625 251.875 81.625Z" fill="black"/>
<path fill-rule="evenodd" clip-rule="evenodd" d="M19.9062 40.1875V18.8594C19.9062 17.6406 20.9219 16.625 21.9375 16.625C22.9531 16.625 23.3594 16.8281 23.9687 17.2344L63.1719 38.7656C63.9844 39.1719 64.3906 39.7812 64.3906 40.3906C64.3906 41 63.9844 41.6094 63.1719 42.0156L23.9687 63.5469C23.5625 63.75 22.9531 64.1562 21.9375 64.1562C20.9219 64.1562 19.9062 63.1406 19.9062 61.9219V40.1875Z" fill="url(#paint0_linear_89_128)"/>
<path fill-rule="evenodd" clip-rule="evenodd" d="M45.2969 40.3906L21.5313 16.625C21.7344 16.625 21.7344 16.625 21.9375 16.625C22.9531 16.625 23.3594 16.8281 23.9688 17.2344L52.8125 33.0781L45.2969 40.3906Z" fill="url(#paint1_linear_89_128)"/>
<path fill-rule="evenodd" clip-rule="evenodd" d="M52.6094 47.5L45.2969 40.1875L52.8125 32.6719L63.1719 38.3594C63.9844 38.7656 64.3906 39.375 64.3906 39.9844C64.3906 40.5937 63.9844 41.2031 63.1719 41.6094L52.6094 47.5Z" fill="url(#paint2_linear_89_128)"/>
<path fill-rule="evenodd" clip-rule="evenodd" d="M21.7344 63.75L45.2969 40.1875L52.6094 47.5L23.9688 63.1406C23.3594 63.5469 22.9531 63.75 21.7344 63.75C21.9375 63.75 21.9375 63.75 21.7344 63.75Z" fill="url(#paint3_linear_89_128)"/>
<path fill-rule="evenodd" clip-rule="evenodd" d="M144.422 69.2344C143.406 68.4219 142.594 67 142.187 66.1875L145.437 64.7656C145.641 65.1719 146.047 65.7812 146.453 66.3906C147.266 67.2031 148.484 68.0156 149.703 68.0156C150.922 68.0156 152.344 67.4062 153.156 66.3906C153.766 65.375 154.172 64.3594 154.172 62.9375V61.7187C151.734 64.7656 146.656 64.3594 143.812 61.1094C140.766 57.8594 140.766 52.375 143.812 49.125C146.859 46.0781 151.328 45.6719 153.969 48.5156V47.0937H157.422V62.3281C157.422 66.1875 156 68.4219 154.172 69.8437C152.953 70.8594 151.125 71.2656 149.5 71.2656C147.672 71.0625 145.844 70.4531 144.422 69.2344ZM229.531 70.0469L232.984 61.9219L226.891 47.9063H230.344L234.609 57.8594L238.875 47.9063H242.328L232.984 70.0469H229.531ZM213.078 62.3281C212.062 61.3125 211.656 59.8906 211.656 58.4687C211.656 57.25 212.062 56.0312 212.875 55.2187C214.297 53.7969 216.328 53.1875 218.562 53.1875C219.984 53.1875 221.203 53.3906 222.219 54C222.219 51.5625 220.187 50.5469 218.562 50.5469C217.141 50.5469 215.719 51.3594 215.109 52.7812L212.062 51.5625C212.672 50.1406 214.297 47.5 218.359 47.5C220.391 47.5 222.422 48.1094 223.641 49.5313C224.859 50.9531 225.266 52.5781 225.266 54.8125V63.3437H221.812V61.9219C221.406 62.5312 220.594 62.9375 219.984 63.3437C219.172 63.75 218.156 63.9531 217.141 63.9531C215.922 63.75 214.094 63.3437 213.078 62.3281ZM104.812 55.0156C104.812 50.9531 107.859 46.4844 113.344 46.4844C118.625 46.4844 121.875 50.9531 121.875 55.0156C121.875 59.0781 118.828 63.5469 113.344 63.5469C107.859 63.5469 104.812 59.0781 104.812 55.0156ZM123.094 55.0156C123.094 50.9531 126.141 46.4844 131.625 46.4844C136.906 46.4844 140.156 50.9531 140.156 55.0156C140.156 59.0781 137.109 63.5469 131.625 63.5469C126.344 63.5469 123.094 59.0781 123.094 55.0156ZM81.8594 59.4844C76.7812 54.4062 76.9844 46.0781 82.0625 40.7969C84.7031 38.1563 87.9531 36.9375 91.4062 36.9375C94.6562 36.9375 97.9062 38.1562 100.344 40.5937L97.9062 43.2344C94.25 39.5781 88.3594 39.7813 84.9062 43.4375C81.25 47.2969 81.25 53.1875 84.9062 57.0469C88.5625 60.9063 94.6562 61.1094 98.3125 57.25C99.5312 56.0312 99.9375 54.4062 100.141 52.7812H91.6094V49.125H103.594C103.797 49.9375 103.797 50.9531 103.797 51.9688C103.797 55.0156 102.578 58.0625 100.547 60.0938C98.3125 62.3281 95.0625 63.5469 91.8125 63.5469C88.1562 63.3437 84.5 62.125 81.8594 59.4844ZM167.781 60.9062C164.734 57.6562 164.734 52.1719 167.781 48.7187C170.828 45.4687 175.906 45.4687 178.75 48.7187C179.766 49.7344 180.375 51.1562 180.984 52.5781L169.812 57.25C170.422 58.6719 171.844 59.8906 173.875 59.8906C175.703 59.8906 176.922 59.2812 178.141 57.4531L181.187 59.4844C180.781 59.8906 180.375 60.2969 180.172 60.7031C176.719 64.1562 170.828 64.1562 167.781 60.9062ZM188.906 63.3437V40.7969H196.219C200.484 40.7969 203.937 43.8438 203.937 47.5C203.937 51.1562 200.891 54.2031 197.031 54.2031H192.562V63.1406H188.906V63.3437ZM205.969 63.3437V40.7969H209.422V63.3437H205.969ZM160.062 62.9375V37.75H163.719V62.9375H160.062ZM222.016 56.6406C221.203 56.0312 219.984 55.8281 218.766 55.8281C216.328 55.8281 214.906 57.0469 214.906 58.4687C214.906 59.8906 216.328 60.7031 217.75 60.7031C219.781 60.7031 222.016 59.0781 222.016 56.6406ZM118.016 55.0156C118.016 52.5781 116.391 49.9375 113.344 49.9375C110.297 49.9375 108.672 52.5781 108.672 55.0156C108.672 57.4531 110.297 60.0938 113.344 60.0938C116.187 60.0938 118.016 57.4531 118.016 55.0156ZM136.297 55.0156C136.297 52.5781 134.672 49.9375 131.625 49.9375C128.578 49.9375 126.953 52.5781 126.953 55.0156C126.953 57.4531 128.578 60.0938 131.625 60.0938C134.672 60.0938 136.297 57.4531 136.297 55.0156ZM154.375 56.4375C154.375 56.2344 154.375 56.0312 154.578 55.8281C154.578 55.625 154.578 55.2188 154.578 55.0156C154.578 54.8125 154.578 54.4062 154.578 54.2031V54C154.578 53.7969 154.375 53.3906 154.375 53.1875C153.766 51.1562 151.937 49.7344 150.109 49.7344C147.672 49.7344 145.641 52.1719 145.641 54.8125C145.641 57.6562 147.672 59.8906 150.312 59.8906C151.937 60.0937 153.562 58.6719 154.375 56.4375ZM169.203 54.6094L176.719 51.3594C175.906 49.9375 174.687 49.5313 173.672 49.5313C170.625 49.7344 168.797 52.9844 169.203 54.6094ZM200.281 47.7031C200.281 45.6719 198.656 44.25 196.422 44.25H192.359V51.3594H196.625C198.656 51.3594 200.281 49.7344 200.281 47.7031Z" fill="white"/>
<path fill-rule="evenodd" clip-rule="evenodd" d="M232.171 65.9836H231.969V65.7813H232.171H231.969V65.9836H232.171Z" fill="white"/>
<path fill-rule="evenodd" clip-rule="evenodd" d="M232.577 65.9836C232.577 65.7813 232.577 65.7813 232.577 65.9836C232.375 65.7813 232.375 65.7813 232.577 65.9836C232.375 65.9836 232.375 65.9836 232.577 65.9836ZM232.577 65.7813C232.577 65.9836 232.577 65.9836 232.577 65.7813C232.577 65.9836 232.375 65.9836 232.577 65.7813C232.577 65.7813 232.375 65.7813 232.577 65.7813Z" fill="white"/>
<path fill-rule="evenodd" clip-rule="evenodd" d="M232.78 65.7813H232.578H232.78V65.9836V65.7813Z" fill="white"/>
<path d="M79.0156 20.8906C79.0156 17.2344 81.6563 15 84.9063 15C87.1406 15 88.5625 16.0156 89.5781 17.4375L87.9531 18.4531C87.3438 17.6406 86.3281 17.0313 84.9063 17.0313C82.6719 17.0313 81.0469 18.6563 81.0469 21.0938C81.0469 23.5313 82.6719 25.1563 84.9063 25.1563C86.125 25.1563 87.1406 24.5469 87.5469 24.1406V22.3125H84.2969V20.4844H89.7812V24.75C88.7656 25.9688 87.1406 26.7813 85.1094 26.7813C81.6562 26.7813 79.0156 24.3438 79.0156 20.8906Z" fill="white"/>
<path d="M92.2187 26.5781V15.2031H99.9375V17.0312H94.0469V19.875H99.7344V21.7031H94.0469V24.9531H99.9375V26.7812L92.2187 26.5781Z" fill="white"/>
<path d="M105.625 26.5781V17.0312H102.172V15.2031H111.109V17.0312H107.656V26.5781H105.625Z" fill="white"/>
<path d="M118.016 26.5781V15.2031H120.047V26.5781H118.016Z" fill="white"/>
<path d="M125.531 26.5781V17.0312H122.078V15.2031H131.016V17.0312H127.563V26.5781H125.531Z" fill="white"/>
<path d="M137.516 20.8906C137.516 17.4375 139.953 15 143.406 15C146.859 15 149.297 17.4375 149.297 20.8906C149.297 24.3438 146.859 26.7813 143.406 26.7813C139.953 26.7813 137.516 24.1406 137.516 20.8906ZM147.062 20.8906C147.062 18.4531 145.641 16.8281 143.203 16.8281C140.969 16.8281 139.344 18.6563 139.344 20.8906C139.344 23.3281 140.766 24.9531 143.203 24.9531C145.641 24.9531 147.062 23.125 147.062 20.8906Z" fill="white"/>
<path d="M159.453 26.5781L153.563 18.4531V26.5781H151.531V15.2031H153.563L159.453 23.125V15.2031H161.484V26.5781H159.453Z" fill="white"/>
<g clip-path="url(#clip0_89_128)">
<path d="M537.875 80.625H294.125C289.656 80.625 286 76.9688 286 72.5V7.5C286 3.03125 289.656 -0.625 294.125 -0.625H537.875C542.344 -0.625 546 3.03125 546 7.5V72.5C546 76.9688 542.344 80.625 537.875 80.625Z" fill="black"/>
<path d="M340.844 39.5937C340.844 33.2969 346.125 30.25 346.328 30.0469C343.281 25.7812 338.813 25.1719 337.188 24.9687C333.328 24.5625 329.469 27.2031 327.641 27.2031C325.609 27.2031 322.563 24.9687 319.313 24.9687C315.047 24.9687 311.188 27.4062 308.953 31.2656C304.484 38.9844 307.734 50.3594 312 56.6562C314.234 59.7031 316.672 63.1562 319.922 62.9531C323.172 62.75 324.391 60.9219 328.25 60.9219C332.109 60.9219 333.125 62.9531 336.578 62.9531C340.031 62.9531 342.266 59.9062 344.297 56.8594C346.734 53.4062 347.75 49.9531 347.75 49.75C347.547 49.5469 340.844 47.1094 340.844 39.5937Z" fill="white"/>
<path d="M334.547 20.9063C336.172 18.6719 337.391 15.8281 337.187 12.7813C334.75 12.9844 331.5 14.4063 329.875 16.6406C328.25 18.4688 326.828 21.5156 327.234 24.3594C329.875 24.5625 332.719 22.9375 334.547 20.9063Z" fill="white"/>
<path d="M387.156 62.5469H382.688L380.25 54.8281H371.719L369.484 62.5469H365.219L373.75 36.3438H379.031L387.156 62.5469ZM379.438 51.5781L377.203 44.6719C377 44.0625 376.594 42.2344 375.781 39.7969C375.578 40.8125 375.172 42.6406 374.563 44.6719L372.328 51.5781H379.438Z" fill="white"/>
<path d="M408.891 53C408.891 56.25 408.078 58.6875 406.25 60.7188C404.625 62.3438 402.797 63.1563 400.359 63.1563C397.922 63.1563 396.094 62.3438 395.078 60.5156V70.4688H390.813V50.1563C390.813 48.125 390.813 46.0938 390.609 43.8594H394.266L394.469 46.9063C395.891 44.6719 397.922 43.4531 400.766 43.4531C403 43.4531 404.828 44.2656 406.25 46.0938C408.078 47.7188 408.891 49.9531 408.891 53ZM404.625 53C404.625 51.1719 404.219 49.5469 403.406 48.5313C402.594 47.3125 401.375 46.7031 399.75 46.7031C398.734 46.7031 397.719 47.1094 396.906 47.7188C396.094 48.3281 395.484 49.3438 395.281 50.3594C395.078 50.9688 395.078 51.375 395.078 51.5781V54.8281C395.078 56.25 395.484 57.2656 396.297 58.2813C397.109 59.2969 398.328 59.7031 399.547 59.7031C401.172 59.7031 402.391 59.0938 403.203 57.875C404.219 56.6563 404.625 55.0313 404.625 53Z" fill="white"/>
<path d="M430.625 53C430.625 56.25 429.813 58.6875 427.984 60.7188C426.359 62.3438 424.531 63.1563 422.094 63.1563C419.656 63.1563 417.828 62.3438 416.812 60.5156V70.4688H412.547V50.1563C412.547 48.125 412.547 46.0938 412.344 43.8594H416L416.203 46.9063C417.625 44.6719 419.656 43.4531 422.5 43.4531C424.734 43.4531 426.563 44.2656 427.984 46.0938C429.813 47.7188 430.625 49.9531 430.625 53ZM426.359 53C426.359 51.1719 425.953 49.5469 425.141 48.5313C424.328 47.3125 423.109 46.7031 421.484 46.7031C420.469 46.7031 419.453 47.1094 418.641 47.7188C417.828 48.3281 417.219 49.3438 417.016 50.3594C416.812 50.9688 416.812 51.375 416.812 51.5781V54.8281C416.812 56.25 417.219 57.2656 418.031 58.2813C418.844 59.2969 420.063 59.7031 421.281 59.7031C422.906 59.7031 424.125 59.0938 424.937 57.875C425.953 56.6563 426.359 55.0313 426.359 53Z" fill="white"/>
<path d="M455 55.2344C455 57.4688 454.188 59.2969 452.766 60.7188C451.141 62.3438 448.703 62.9531 445.656 62.9531C442.813 62.9531 440.578 62.3438 438.953 61.3281L439.969 57.875C441.797 58.8906 443.828 59.5 446.063 59.5C447.688 59.5 448.906 59.0937 449.719 58.4844C450.531 57.6719 450.938 56.8594 450.938 55.6406C450.938 54.625 450.531 53.6094 449.922 53C449.109 52.1875 447.891 51.5781 446.266 50.9688C441.594 49.3438 439.359 46.7031 439.359 43.4531C439.359 41.2188 440.172 39.5938 441.797 38.1719C443.422 36.75 445.453 36.1406 448.297 36.1406C450.734 36.1406 452.563 36.5469 454.188 37.3594L453.172 40.8125C451.75 40 450.125 39.5938 448.094 39.5938C446.672 39.5938 445.453 40 444.641 40.6094C444.031 41.2188 443.625 42.0313 443.625 43.0469C443.625 44.0625 444.031 44.875 444.844 45.6875C445.453 46.2969 446.875 46.9063 448.703 47.7188C450.938 48.5313 452.563 49.75 453.781 50.9688C454.391 51.9844 455 53.4063 455 55.2344Z" fill="white"/>
<path d="M468.813 46.9063H464.141V56.0469C464.141 58.2813 464.953 59.5 466.578 59.5C467.391 59.5 468 59.5 468.406 59.2969L468.609 62.5469C467.797 62.9531 466.781 62.9531 465.359 62.9531C463.734 62.9531 462.313 62.5469 461.5 61.5312C460.484 60.5156 460.078 58.8906 460.078 56.4531V46.9063H457.234V43.6562H460.078V40.2031L464.141 38.9844V43.6562H468.813V46.9063Z" fill="white"/>
<path d="M489.734 53C489.734 55.8438 488.922 58.2813 487.297 60.1094C485.469 61.9375 483.234 62.9531 480.391 62.9531C477.547 62.9531 475.313 61.9375 473.688 60.1094C472.063 58.2813 471.25 56.0469 471.25 53.2031C471.25 50.3594 472.063 47.9219 473.891 46.0938C475.516 44.2656 477.953 43.25 480.797 43.25C483.641 43.25 485.875 44.2656 487.5 46.0938C488.922 47.9219 489.734 50.1563 489.734 53ZM485.266 53.2031C485.266 51.375 484.859 49.9531 484.047 48.7344C483.234 47.3125 481.813 46.5 480.188 46.5C478.563 46.5 477.141 47.3125 476.328 48.7344C475.516 49.9531 475.109 51.5781 475.109 53.2031C475.109 55.0313 475.516 56.4531 476.328 57.6719C477.141 59.0938 478.563 59.9063 480.188 59.9063C481.813 59.9063 483.031 59.0938 484.047 57.6719C484.859 56.4531 485.266 54.8281 485.266 53.2031Z" fill="white"/>
<path d="M503.344 47.3125C502.937 47.3125 502.531 47.1094 501.922 47.1094C500.5 47.1094 499.281 47.7187 498.469 48.7344C497.859 49.75 497.453 50.9687 497.453 52.3906V62.3438H493.187V49.3437C493.187 47.1094 493.188 45.2813 492.984 43.4531H496.641L496.844 47.1094H497.047C497.453 45.8906 498.266 44.875 499.078 44.0625C500.094 43.4531 501.109 43.0469 502.125 43.0469C502.531 43.0469 502.938 43.0469 503.141 43.0469V47.3125H503.344Z" fill="white"/>
<path d="M522.031 52.1875C522.031 53 522.031 53.6094 521.828 54.0156H509.234C509.234 55.8438 509.844 57.2656 511.062 58.2813C512.078 59.0938 513.5 59.7031 515.125 59.7031C516.953 59.7031 518.781 59.5 520.203 58.8906L520.813 61.7344C518.984 62.5469 516.953 62.9531 514.516 62.9531C511.672 62.9531 509.234 62.1406 507.609 60.3125C505.984 58.6875 505.172 56.25 505.172 53.4063C505.172 50.5625 505.984 48.125 507.406 46.2969C509.031 44.2656 511.266 43.25 514.109 43.25C516.75 43.25 518.984 44.2656 520.203 46.2969C521.625 47.9219 522.031 49.9531 522.031 52.1875ZM518.172 51.1719C518.172 49.9531 517.969 48.9375 517.359 47.9219C516.547 46.7031 515.531 46.0938 514.109 46.0938C512.687 46.0938 511.672 46.7031 510.859 47.7188C510.25 48.5313 509.844 49.75 509.641 50.9688H518.172V51.1719Z" fill="white"/>
<path d="M378.219 20.2969C378.219 22.5312 377.609 24.3594 376.187 25.5781C374.969 26.5937 373.141 27.2031 370.703 27.2031C369.484 27.2031 368.469 27.2031 367.656 27V14.4062C368.672 14.2031 369.891 14.2031 371.312 14.2031C373.547 14.2031 375.172 14.6094 376.391 15.625C377.406 16.6406 378.219 18.2656 378.219 20.2969ZM375.984 20.2969C375.984 18.875 375.578 17.6562 374.766 16.8437C373.953 16.0312 372.734 15.625 371.312 15.625C370.703 15.625 370.094 15.625 369.688 15.8281V25.375C369.891 25.375 370.5 25.375 371.109 25.375C372.734 25.375 373.953 24.9687 374.766 24.1562C375.578 23.3437 375.984 21.9219 375.984 20.2969Z" fill="white"/>
<path d="M389.594 22.3281C389.594 23.75 389.188 24.9687 388.375 25.7812C387.563 26.7969 386.344 27.2031 384.922 27.2031C383.5 27.2031 382.484 26.7969 381.672 25.7812C380.859 24.9687 380.453 23.75 380.453 22.3281C380.453 20.9062 380.859 19.6875 381.672 18.875C382.484 17.8594 383.703 17.4531 385.125 17.4531C386.547 17.4531 387.563 17.8594 388.375 18.875C389.188 19.6875 389.594 20.9062 389.594 22.3281ZM387.562 22.3281C387.562 21.5156 387.359 20.7031 386.953 20.0937C386.547 19.2812 385.938 19.0781 385.125 19.0781C384.313 19.0781 383.703 19.4844 383.297 20.0937C382.891 20.7031 382.688 21.5156 382.688 22.3281C382.688 23.1406 382.891 23.9531 383.297 24.5625C383.703 25.375 384.313 25.5781 385.125 25.5781C385.938 25.5781 386.547 25.1719 386.953 24.3594C387.359 23.9531 387.562 23.1406 387.562 22.3281Z" fill="white"/>
<path d="M405.234 17.6562L402.391 27H400.563L399.344 22.9375C398.938 21.9219 398.734 20.9063 398.531 19.8906C398.328 20.9063 398.125 21.9219 397.719 22.9375L396.5 27H394.672L391.625 17.6562H393.656L394.672 22.125C394.875 23.1406 395.078 24.1563 395.281 25.1719C395.484 24.3594 395.688 23.3438 396.094 22.125L397.313 17.6562H398.938L400.156 21.9219C400.563 22.9375 400.766 23.9531 400.969 24.9688C401.172 23.9531 401.375 22.9375 401.578 21.9219L402.797 17.6562H405.234Z" fill="white"/>
<path d="M415.797 27H413.766V21.7187C413.766 20.0937 413.156 19.2812 411.938 19.2812C411.328 19.2812 410.922 19.4844 410.516 19.8906C410.109 20.2969 409.906 20.9062 409.906 21.5156V27H407.875V20.2969C407.875 19.4844 407.875 18.6719 407.875 17.6562H409.703V19.0781C409.906 18.6719 410.313 18.2656 410.719 17.8594C411.328 17.4531 411.938 17.25 412.547 17.25C413.359 17.25 414.172 17.4531 414.781 18.0625C415.594 18.6719 415.797 19.6875 415.797 21.1094V27Z" fill="white"/>
<path d="M421.484 27H419.453V13.3906H421.484V27Z" fill="white"/>
<path d="M433.672 22.3281C433.672 23.75 433.266 24.9687 432.453 25.7812C431.641 26.7969 430.422 27.2031 429 27.2031C427.578 27.2031 426.562 26.7969 425.75 25.7812C424.937 24.9687 424.531 23.75 424.531 22.3281C424.531 20.9062 424.937 19.6875 425.75 18.875C426.562 18.0625 427.781 17.4531 429.203 17.4531C430.625 17.4531 431.641 17.8594 432.453 18.875C433.266 19.6875 433.672 20.9062 433.672 22.3281ZM431.641 22.3281C431.641 21.5156 431.437 20.7031 431.031 20.0937C430.625 19.2812 430.016 19.0781 429.203 19.0781C428.391 19.0781 427.781 19.4844 427.375 20.0937C426.969 20.7031 426.766 21.5156 426.766 22.3281C426.766 23.1406 426.969 23.9531 427.375 24.5625C427.781 25.375 428.391 25.5781 429.203 25.5781C430.016 25.5781 430.625 25.1719 431.031 24.3594C431.437 23.9531 431.641 23.1406 431.641 22.3281Z" fill="white"/>
<path d="M443.625 27H441.797L441.594 25.9844C440.984 26.7969 439.969 27.2031 438.953 27.2031C438.141 27.2031 437.328 27 436.922 26.3906C436.516 25.7812 436.109 25.1719 436.109 24.5625C436.109 23.3437 436.516 22.5312 437.531 21.9219C438.547 21.3125 439.766 21.1094 441.594 21.1094V20.9062C441.594 19.6875 440.984 19.0781 439.766 19.0781C438.75 19.0781 438.141 19.2812 437.328 19.6875L436.922 18.2656C437.734 17.6562 438.75 17.4531 440.172 17.4531C442.609 17.4531 443.828 18.6719 443.828 21.3125V24.7656C443.625 25.7812 443.625 26.3906 443.625 27ZM441.594 23.75V22.3281C439.359 22.3281 438.141 22.9375 438.141 24.1562C438.141 24.5625 438.344 24.9687 438.547 25.1719C438.75 25.375 439.156 25.5781 439.563 25.5781C439.969 25.5781 440.375 25.375 440.781 25.1719C441.188 24.9687 441.391 24.5625 441.594 24.1562C441.594 24.1562 441.594 23.9531 441.594 23.75Z" fill="white"/>
<path d="M455.406 27H453.578V25.5781C452.969 26.7969 451.953 27.2031 450.531 27.2031C449.312 27.2031 448.5 26.7969 447.687 25.9844C446.875 25.1719 446.672 23.9531 446.672 22.5312C446.672 21.1094 447.078 19.8906 447.891 18.875C448.703 18.0625 449.719 17.6562 450.734 17.6562C451.953 17.6562 452.766 18.0625 453.375 18.875V13.5938H455.406V24.5625C455.406 25.375 455.406 26.1875 455.406 27ZM453.375 23.1406V21.5156C453.375 21.3125 453.375 21.1094 453.375 20.9062C453.172 20.5 452.969 20.0937 452.562 19.6875C452.156 19.2812 451.75 19.2812 451.141 19.2812C450.328 19.2812 449.719 19.6875 449.312 20.2969C448.906 20.9062 448.703 21.7187 448.703 22.7344C448.703 23.75 448.906 24.3594 449.312 24.9687C449.719 25.5781 450.328 25.9844 451.141 25.9844C451.75 25.9844 452.359 25.7813 452.766 25.1719C453.172 24.3594 453.375 23.75 453.375 23.1406Z" fill="white"/>
<path d="M473.078 22.3281C473.078 23.75 472.672 24.9687 471.859 25.7812C471.047 26.7969 469.828 27.2031 468.406 27.2031C466.984 27.2031 465.969 26.7969 465.156 25.7812C464.344 24.9687 463.938 23.75 463.938 22.3281C463.938 20.9062 464.344 19.6875 465.156 18.875C465.969 17.8594 467.188 17.4531 468.609 17.4531C470.031 17.4531 471.047 17.8594 471.859 18.875C472.672 19.6875 473.078 20.9062 473.078 22.3281ZM470.844 22.3281C470.844 21.5156 470.641 20.7031 470.234 20.0937C469.828 19.2812 469.219 19.0781 468.406 19.0781C467.594 19.0781 466.984 19.4844 466.578 20.0937C466.172 20.7031 465.969 21.5156 465.969 22.3281C465.969 23.1406 466.172 23.9531 466.578 24.5625C466.984 25.375 467.594 25.5781 468.406 25.5781C469.219 25.5781 469.828 25.1719 470.234 24.3594C470.641 23.9531 470.844 23.1406 470.844 22.3281Z" fill="white"/>
<path d="M484.25 27H482.219V21.7187C482.219 20.0937 481.609 19.2812 480.391 19.2812C479.781 19.2812 479.375 19.4844 478.969 19.8906C478.563 20.2969 478.359 20.9062 478.359 21.5156V27H476.328V20.2969C476.328 19.4844 476.328 18.6719 476.328 17.6562H478.156V19.0781C478.359 18.6719 478.766 18.2656 479.172 17.8594C479.781 17.4531 480.391 17.25 481 17.25C481.813 17.25 482.625 17.4531 483.234 18.0625C484.047 18.6719 484.25 19.6875 484.25 21.1094V27Z" fill="white"/>
<path d="M498.063 19.2812H495.828V23.75C495.828 24.9687 496.234 25.375 497.047 25.375C497.453 25.375 497.656 25.375 498.063 25.375V27C497.656 27.2031 497.047 27.2031 496.438 27.2031C495.625 27.2031 495.016 27 494.609 26.3906C494.203 25.9844 494 24.9687 494 23.9531V19.2812H492.578V17.6562H494V16.0312L496.031 15.4219V17.6562H498.266V19.2812H498.063Z" fill="white"/>
<path d="M509.031 27H507V21.7187C507 20.0937 506.391 19.2812 505.172 19.2812C504.156 19.2812 503.547 19.6875 503.141 20.7031C503.141 20.9062 503.141 21.1094 503.141 21.5156V27H501.109V13.3906H503.141V19.0781C503.75 18.0625 504.766 17.4531 505.984 17.4531C506.797 17.4531 507.609 17.6562 508.016 18.2656C508.625 18.875 509.031 20.0937 509.031 21.3125V27Z" fill="white"/>
<path d="M520.203 21.9219C520.203 22.3281 520.203 22.5313 520.203 22.9375H514.109C514.109 23.9531 514.516 24.5625 514.922 24.9687C515.531 25.375 516.141 25.5781 516.953 25.5781C517.969 25.5781 518.781 25.375 519.391 25.1719L519.797 26.5938C518.984 27 517.969 27.2031 516.75 27.2031C515.328 27.2031 514.109 26.7969 513.297 25.9844C512.484 25.1719 512.078 23.9531 512.078 22.5312C512.078 21.1094 512.484 19.8906 513.297 19.0781C514.109 18.0625 515.125 17.6562 516.547 17.6562C517.969 17.6562 518.984 18.0625 519.594 19.0781C520 19.6875 520.203 20.7031 520.203 21.9219ZM518.375 21.3125C518.375 20.7031 518.172 20.0937 517.969 19.6875C517.562 19.0781 517.156 18.875 516.344 18.875C515.734 18.875 515.125 19.0781 514.719 19.6875C514.313 20.0937 514.109 20.7031 514.109 21.3125H518.375Z" fill="white"/>
</g>
<defs>
<linearGradient id="paint0_linear_89_128" x1="33.0431" y1="13.7276" x2="44.4145" y2="60.4279" gradientUnits="userSpaceOnUse">
<stop stop-color="#006884"/>
<stop offset="1" stop-color="#8AD1D0"/>
</linearGradient>
<linearGradient id="paint1_linear_89_128" x1="19.1764" y1="20.3702" x2="50.1652" y2="37.1229" gradientUnits="userSpaceOnUse">
<stop stop-color="#24BBB6"/>
<stop offset="1" stop-color="#DBE692"/>
</linearGradient>
<linearGradient id="paint2_linear_89_128" x1="54.8324" y1="48.3533" x2="54.8324" y2="32.2081" gradientUnits="userSpaceOnUse">
<stop stop-color="#FCC072"/>
<stop offset="1" stop-color="#F58A5B"/>
</linearGradient>
<linearGradient id="paint3_linear_89_128" x1="25.1767" y1="67.9529" x2="49.6568" y2="43.0392" gradientUnits="userSpaceOnUse">
<stop stop-color="#712B8F"/>
<stop offset="1" stop-color="#EA1D27"/>
</linearGradient>
<clipPath id="clip0_89_128">
<rect width="260" height="81" fill="white" transform="translate(286)"/>
</clipPath>
</defs>
</svg>
