<svg width="48" height="48" viewBox="0 0 48 48" fill="none" xmlns="http://www.w3.org/2000/svg">
<circle cx="24" cy="24" r="24" fill="#F2F2F2"/>
<path d="M27.3 17.55C26.54 17.5499 25.8103 17.8481 25.2679 18.3806C24.7256 18.913 24.4139 19.6371 24.4 20.397L24.372 21.972C24.3704 22.0566 24.3509 22.1398 24.3148 22.2163C24.2787 22.2928 24.2269 22.3608 24.1626 22.4159C24.0984 22.4709 24.0233 22.5118 23.9422 22.5358C23.8611 22.5597 23.7758 22.5663 23.692 22.555L22.131 22.343C20.077 22.063 18.109 21.117 16.221 19.544C15.623 22.854 16.791 25.147 19.604 26.916L21.351 28.014C21.434 28.0662 21.503 28.1379 21.5519 28.2229C21.6007 28.3078 21.628 28.4035 21.6314 28.5015C21.6348 28.5995 21.6141 28.6968 21.5711 28.7849C21.5281 28.873 21.4642 28.9493 21.385 29.007L19.793 30.17C20.74 30.229 21.639 30.187 22.385 30.039C27.103 29.097 30.24 25.547 30.24 19.691C30.24 19.213 29.228 17.55 27.3 17.55V17.55ZM22.4 20.36C22.4175 19.3961 22.7189 18.4587 23.2666 17.6652C23.8142 16.8718 24.5838 16.2575 25.4789 15.8994C26.374 15.5412 27.3549 15.4551 28.2987 15.6517C29.2426 15.8484 30.1074 16.3191 30.785 17.005C31.496 17 32.101 17.18 33.454 16.36C33.119 18 32.954 18.712 32.24 19.691C32.24 27.333 27.543 31.049 22.777 32C19.509 32.652 14.757 31.581 13.395 30.159C14.089 30.105 16.909 29.802 18.539 28.609C17.16 27.7 11.671 24.47 15.278 15.786C16.971 17.763 18.688 19.109 20.428 19.823C21.586 20.298 21.87 20.288 22.401 20.361L22.4 20.36Z" fill="#121212"/>
</svg>
